<svg id="_x3C_&#x421;&#x43B;&#x43E;&#x439;_x3E_" enable-background="new 0 0 32 32" height="32" viewBox="0 0 32 32" width="32" xmlns="http://www.w3.org/2000/svg"><g id="carbon_offset_x2C__carbon_x2C__offset"><g id="XMLID_5354_"><g id="XMLID_5355_"><g id="XMLID_5356_"><path d="m12.448 29.026c7.536 2.058 15.36-2.35 17.254-9.283l.29.08c-2.109 7.725-10.082 12.277-17.808 10.168s-12.278-10.083-10.168-17.807c2.11-7.725 10.084-12.278 17.808-10.168 3.793 1.035 6.805 3.493 8.654 6.633l.059-.033 1.93-1.104-.141 6.479-5.65-3.172 1.931-1.103s-1.763-4.257-7.31-5.771c-6.658-1.818-14.016 1.975-15.834 8.634-1.909 6.993 1.991 14.537 8.985 16.447z" fill="#55fb9b"/></g></g><g id="XMLID_5357_"><g id="XMLID_5358_"><path d="m19.561 2.98c-7.538-2.058-15.362 2.349-17.254 9.283l-.291-.079c2.11-7.725 10.084-12.278 17.808-10.168s12.277 10.082 10.168 17.808c-2.109 7.725-10.082 12.277-17.808 10.168-3.793-1.036-6.806-3.493-8.654-6.633l-.059.033-1.93 1.103.14-6.478 5.65 3.172-1.93 1.103s1.762 4.256 7.309 5.771c6.659 1.818 14.016-1.976 15.834-8.634 1.911-6.995-1.989-14.539-8.983-16.449z" fill="#55fb9b"/></g></g></g><g id="XMLID_5359_"><g id="XMLID_5360_"><g id="XMLID_5361_"><path id="XMLID_5362_" d="m16.604 29.003h-.1c-.276 0-.5-.224-.5-.5s.224-.5.5-.5.55.224.55.5-.174.5-.45.5z" fill="#455a64"/></g></g><g id="XMLID_5363_"><g id="XMLID_5364_"><path id="XMLID_5365_" d="m15.504 4.003h-.1c-.276 0-.5-.224-.5-.5s.224-.5.5-.5.55.224.55.5-.174.5-.45.5z" fill="#455a64"/></g></g><g id="XMLID_5366_"><g id="XMLID_5367_"><path id="XMLID_5368_" d="m1.509 16.007c-.006 0-.012 0-.018 0-.275-.01-.491-.241-.482-.517.04-1.153.217-2.31.524-3.438 2.18-7.979 10.446-12.698 18.423-10.519 3.615.987 6.687 3.265 8.696 6.44l1.566-.896c.157-.089.349-.088.504.004.154.092.248.26.244.44l-.141 6.479c-.004.176-.1.336-.252.423s-.339.088-.493.002l-5.65-3.172c-.156-.088-.254-.254-.255-.434s.096-.347.252-.436l1.519-.867c-.583-1.05-2.525-3.928-6.781-5.09-.56-.153-1.139-.267-1.719-.34-.274-.034-.469-.284-.435-.558.033-.274.284-.468.558-.434.628.078 1.254.202 1.859.367 5.718 1.562 7.563 5.879 7.64 6.063.097.233.005.5-.214.625l-1.164.665 4.154 2.332.103-4.762-1.162.665c-.238.137-.599.088-.737-.147-1.867-3.169-4.834-5.443-8.355-6.404-7.453-2.036-15.161 2.371-17.195 9.817-.288 1.053-.452 2.133-.489 3.208-.01.271-.232.484-.5.484z" fill="#455a64"/></g></g><g id="XMLID_5369_"><g id="XMLID_5370_"><path id="XMLID_5371_" d="m16 31.005c-1.305 0-2.629-.171-3.947-.531-3.617-.988-6.688-3.267-8.696-6.44l-1.567.894c-.156.09-.349.088-.504-.004-.154-.092-.248-.26-.244-.44l.14-6.478c.004-.176.1-.336.252-.423s.339-.088.493-.002l5.65 3.172c.156.088.254.254.255.434s-.096.347-.252.436l-1.517.867c.583 1.05 2.524 3.927 6.78 5.089.563.154 1.145.269 1.727.341.274.034.469.284.435.558s-.292.472-.558.435c-.63-.078-1.258-.202-1.867-.369-5.718-1.562-7.563-5.879-7.639-6.062-.097-.233-.005-.5.214-.625l1.163-.665-4.155-2.332-.103 4.761 1.163-.664c.239-.136.598-.087.737.147 1.865 3.167 4.832 5.442 8.355 6.404 7.448 2.034 15.16-2.371 17.193-9.817.287-1.051.451-2.128.489-3.203.01-.276.253-.492.518-.482.276.01.492.241.482.517-.041 1.152-.218 2.306-.524 3.431-1.818 6.662-7.878 11.051-14.473 11.051z" fill="#455a64"/></g></g><g id="XMLID_5372_"><g id="XMLID_5373_"><path id="XMLID_5374_" d="m21.5 23.007c-.276 0-.5-.224-.5-.5 0-.884.646-1.418 1.164-1.847s.836-.715.836-1.153c0-.276-.225-.5-.5-.5s-.5.224-.5.5-.224.5-.5.5-.5-.224-.5-.5c0-.827.673-1.5 1.5-1.5s1.5.673 1.5 1.5c0 .931-.665 1.481-1.198 1.923-.497.411-.802.683-.802 1.077 0 .276-.224.5-.5.5z" fill="#455a64"/></g></g><g id="XMLID_5375_"><g id="XMLID_5376_"><path id="XMLID_5377_" d="m23.5 23.007h-2c-.276 0-.5-.224-.5-.5s.224-.5.5-.5h2c.276 0 .5.224.5.5s-.224.5-.5.5z" fill="#455a64"/></g></g><g id="XMLID_5378_"><g id="XMLID_5379_"><path id="XMLID_5380_" d="m18.5 20.007c-1.379 0-2.5-1.122-2.5-2.5v-3c0-1.378 1.121-2.5 2.5-2.5s2.5 1.122 2.5 2.5v3c0 1.378-1.121 2.5-2.5 2.5zm0-7c-.827 0-1.5.673-1.5 1.5v3c0 .827.673 1.5 1.5 1.5s1.5-.673 1.5-1.5v-3c0-.827-.673-1.5-1.5-1.5z" fill="#455a64"/></g></g><g id="XMLID_5383_"><g id="XMLID_5384_"><path id="XMLID_5385_" d="m12.5 20.007c-1.379 0-2.5-1.122-2.5-2.5v-3c0-1.378 1.121-2.5 2.5-2.5s2.5 1.122 2.5 2.5c0 .276-.224.5-.5.5s-.5-.224-.5-.5c0-.827-.673-1.5-1.5-1.5s-1.5.673-1.5 1.5v3c0 .827.673 1.5 1.5 1.5s1.5-.673 1.5-1.5c0-.276.224-.5.5-.5s.5.224.5.5c0 1.378-1.121 2.5-2.5 2.5z" fill="#455a64"/></g></g></g></g></svg>