<svg id="Capa_1" enable-background="new 0 0 512 512" height="512" viewBox="0 0 512 512" width="512" xmlns="http://www.w3.org/2000/svg"><g><path d="m256 283.514c0-42.063-34.099-76.162-76.162-76.162l-10 70.567 10 169.109h76.162z" fill="#24b3b3"/><path d="m103.676 283.514v163.514h76.162v-239.676c-42.063 0-76.162 34.099-76.162 76.162z" fill="#2ee6a8"/><path d="m408.324 283.514c0-42.063-34.099-76.162-76.162-76.162l-10 70.567 10 169.109h76.162z" fill="#e62e6b"/><path d="m256 283.514v163.514h76.162v-239.676c-42.063 0-76.162 34.099-76.162 76.162z" fill="#f66"/><path d="m241 0h30v45h-30z" fill="#ffb655"/><path d="m241 0h30v45h-30z" fill="#ffb655"/><path d="m168.844 11.428h30v45h-30z" fill="#ffda44" transform="matrix(.951 -.309 .309 .951 -1.486 58.473)"/><path d="m168.844 11.428h30v45h-30z" fill="#ffda44" transform="matrix(.951 -.309 .309 .951 -1.486 58.473)"/><path d="m103.752 44.594h30v45h-30z" fill="#ffda44" transform="matrix(.809 -.588 .588 .809 -16.757 82.616)"/><path d="m103.752 44.594h30v45h-30z" fill="#ffda44" transform="matrix(.809 -.588 .588 .809 -16.757 82.616)"/><path d="m52.094 96.252h30v45h-30z" fill="#ffda44" transform="matrix(.588 -.809 .809 .588 -68.415 103.231)"/><path d="m52.094 96.252h30v45h-30z" fill="#ffda44" transform="matrix(.588 -.809 .809 .588 -68.415 103.231)"/><path d="m18.928 161.344h30v45h-30z" fill="#ffda44" transform="matrix(.309 -.951 .951 .309 -151.403 159.303)"/><path d="m18.928 161.344h30v45h-30z" fill="#ffda44" transform="matrix(.309 -.951 .951 .309 -151.403 159.303)"/><path d="m0 241h45v30h-45z" fill="#ffda44"/><path d="m0 241h45v30h-45z" fill="#ffda44"/><g fill="#ffb655"><path d="m467 241h45v30h-45z"/><path d="m467 241h45v30h-45z"/><path d="m455.572 168.844h45v30h-45z" transform="matrix(.951 -.309 .309 .951 -33.413 156.733)"/><path d="m455.572 168.844h45v30h-45z" transform="matrix(.951 -.309 .309 .951 -33.413 156.733)"/><path d="m422.405 103.752h45v30h-45z" transform="matrix(.809 -.588 .588 .809 15.17 284.191)"/><path d="m422.405 103.752h45v30h-45z" transform="matrix(.809 -.588 .588 .809 15.17 284.191)"/><path d="m370.748 52.094h45v30h-45z" transform="matrix(.588 -.809 .809 .588 107.82 345.8)"/><path d="m370.748 52.094h45v30h-45z" transform="matrix(.588 -.809 .809 .588 107.82 345.8)"/><path d="m305.655 18.928h45v30h-45z" transform="matrix(.309 -.951 .951 .309 194.481 335.538)"/><path d="m305.655 18.928h45v30h-45z" transform="matrix(.309 -.951 .951 .309 194.481 335.538)"/></g><path d="m223.514 163.676c0-24.122-19.554-43.676-43.676-43.676l-10 43.676 10 43.676c24.121 0 43.676-19.555 43.676-43.676z" fill="#dbad5c"/><path d="m136.162 163.676c0 24.122 19.554 43.676 43.676 43.676v-87.352c-24.122 0-43.676 19.554-43.676 43.676z" fill="#e7c994"/><path d="m375.838 163.676c0-24.122-19.554-43.676-43.676-43.676l-10 43.676 10 43.676c24.122 0 43.676-19.555 43.676-43.676z" fill="#8c574d"/><path d="m288.486 163.676c0 24.122 19.554 43.676 43.676 43.676v-87.352c-24.121 0-43.676 19.554-43.676 43.676z" fill="#a6756b"/><path d="m452 327.19c0-24.122-19.554-43.676-43.676-43.676l-10 43.676 10 43.676c24.122-.001 43.676-19.555 43.676-43.676z" fill="#dbad5c"/><path d="m364.648 327.19c0 24.122 19.554 43.676 43.676 43.676v-87.352c-24.121 0-43.676 19.554-43.676 43.676z" fill="#e7c994"/><path d="m484.486 447.028c0-42.063-34.099-76.162-76.162-76.162l-10 70.567 10 70.567h76.162z" fill="#6a4dff"/><path d="m332.162 447.028-10 34.972 10 30h76.162v-141.135c-42.063 0-76.162 34.099-76.162 76.163z" fill="#6680ff"/><path d="m299.676 327.19c0-24.122-19.554-43.676-43.676-43.676l-10 43.676 10 43.676c24.122-.001 43.676-19.555 43.676-43.676z" fill="#ffcdbe"/><path d="m212.324 327.19c0 24.122 19.554 43.676 43.676 43.676v-87.352c-24.122 0-43.676 19.554-43.676 43.676z" fill="#ffdecf"/><path d="m332.162 447.028c0-42.063-34.099-76.162-76.162-76.162l-10 70.567 10 70.567h76.162z" fill="#404a80"/><path d="m179.838 447.028-10 34.972 10 30h76.162v-141.135c-42.063 0-76.162 34.099-76.162 76.163z" fill="#5c6699"/><path d="m147.352 327.19c0-24.122-19.554-43.676-43.676-43.676l-10 43.676 10 43.676c24.121-.001 43.676-19.555 43.676-43.676z" fill="#8c574d"/><path d="m60 327.19c0 24.122 19.554 43.676 43.676 43.676v-87.352c-24.122 0-43.676 19.554-43.676 43.676z" fill="#a6756b"/><path d="m179.838 447.028c0-42.063-34.099-76.162-76.162-76.162l-10 70.567 10 70.567h76.162z" fill="#ffb655"/><path d="m27.514 447.028v64.972h76.162v-141.135c-42.063 0-76.162 34.099-76.162 76.163z" fill="#ffda44"/></g></svg>