<svg id="Capa_1" enable-background="new 0 0 512 512" height="512" viewBox="0 0 512 512" width="512" xmlns="http://www.w3.org/2000/svg"><g><g><circle cx="256" cy="256" fill="#ff3c7d" r="256"/><path d="m256 0v512c141.385 0 256-114.615 256-256s-114.615-256-256-256z" fill="#e50058"/><path d="m256 452c-108.075 0-196-87.925-196-196s87.925-196 196-196 196 87.925 196 196-87.925 196-196 196z" fill="#fff5f5"/><path d="m256 60v392c108.075 0 196-87.925 196-196s-87.925-196-196-196z" fill="#ece9e8"/><path d="m256 392c-74.99 0-136-61.01-136-136s61.01-136 136-136 136 61.01 136 136-61.01 136-136 136z" fill="#ff3c7d"/><path d="m256 120v272c74.99 0 136-61.01 136-136s-61.01-136-136-136z" fill="#e50058"/><path d="m256 332c-41.906 0-76-34.094-76-76s34.094-76 76-76 76 34.094 76 76-34.094 76-76 76z" fill="#fff5f5"/><path d="m256 180v152c41.906 0 76-34.094 76-76s-34.094-76-76-76z" fill="#ece9e8"/><path d="m501.849 71.524-29.924-10.237-19.395-1.818-1.818-19.395-10.237-29.923c-3.593-10.502-16.951-13.6-24.799-5.751l-63.64 63.64c-4.048 4.048-5.439 10.046-3.586 15.462l20.404 59.644 59.644 20.404c5.416 1.853 11.414.462 15.462-3.586l63.64-63.64c7.849-7.849 4.751-21.207-5.751-24.8z" fill="#ff9f22"/><path d="m501.849 71.524-29.924-10.237-19.395-1.818-83.676 83.676 59.644 20.404c5.416 1.853 11.414.462 15.462-3.586l63.64-63.64c7.849-7.848 4.751-21.206-5.751-24.799z" fill="#ff7c48"/><path d="m450.712 40.074 5.407 15.806 15.806 5.407-205.319 205.319c-5.858 5.858-15.355 5.858-21.213 0-5.858-5.858-5.858-15.355 0-21.213z" fill="#fff47d"/><path d="m456.12 55.88 15.806 5.407-205.32 205.319c-5.858 5.858-15.355 5.858-21.213 0z" fill="#ffd422"/></g></g></svg>