<svg id="Capa_1" enable-background="new 0 0 510.02 510.02" viewBox="0 0 510.02 510.02" xmlns="http://www.w3.org/2000/svg"><g><g><g><g><g><path d="m388.439 270.684 1.191-1.191c-.492.289-.979.59-1.191 1.191z" fill="#fde0be"/></g><g><path d="m388.439 270.684c-17.842 15.243-85.374 92.758-107.518 98.942l115.903 114.202 103.196-103.196z" fill="#fde0be"/></g><g><path d="m461.224 341.105-104.747 104.747c-9.373 9.373-24.569 9.373-33.941 0-9.373-9.373-9.373-24.569 0-33.941l104.747-104.747c9.373-9.373 24.568-9.373 33.941 0 9.373 9.373 9.373 24.569 0 33.941z" fill="#67ccd1"/></g></g><g><g><path d="m426.472 307.975-38.033-37.291c-17.842 15.243-85.374 92.758-107.518 98.942l42.297 41.604z" fill="#f7b073"/></g><g><path d="m390.919 268.204-.226.226c.106-.045.192-.11.226-.226z" fill="#f7b073"/></g></g></g><g><g><path d="m336.077 84.587-58.404-58.395c-14.68 14.272-36.623 31.465-17.486 52.45 23.878 23.879 40.92 40.915 40.917 40.918-.003.004 34.973-34.973 34.973-34.973z" fill="#fde0be"/></g><g><path d="m336.077 84.587-58.404-58.395c-14.68 14.272-36.623 31.465-17.486 52.45 23.878 23.879 40.92 40.915 40.917 40.918-.003.004 34.973-34.973 34.973-34.973z" fill="#fde0be"/></g></g><g><g><path d="m336.077 84.587-58.404-58.395c-14.68 14.272-36.623 31.465-17.486 52.45 23.878 23.879 40.92 40.915 40.917 40.918-.003.004 34.973-34.973 34.973-34.973z" fill="#f7b073"/></g></g><g><g><path d="m423.607 200.335c-9.672-9.672-25.325-9.711-35.05-.125l12.484-12.484c22.164-22.158-10.003-56.783-33.699-36.539 14.794-13.383 30.652-29.501 13.434-48.616-9.375-9.375-24.369-9.7-34.138-.981 8.719-9.768 8.393-24.763-.981-34.138-9.715-9.715-25.466-9.715-35.181 0l-114.493 114.493-41.122 5.434-30.944 77.575-113.917 115.668 103.197 103.198 110.931-112.683c28.845 10.176 60.971 2.887 82.599-18.741l103.106-103.106c14.749-13.419 31.193-29.655 13.774-48.955z" fill="#fdbeb9"/></g><g><path d="m274.504 158.901c0-22.488 3.248-44.214 9.275-64.752l-87.796 87.796-41.122 5.434-30.944 77.575-113.917 115.668 103.197 103.198 110.931-112.683c49.268 18.863 85.284-18.927 115.713-51.855-40.418-41.382-65.337-97.967-65.337-160.381z" fill="#fd7da0"/></g><g><path d="m47.88 340.013 104.747 104.747c9.373 9.373 24.569 9.373 33.941 0 9.373-9.373 9.373-24.569 0-33.941l-104.747-104.747c-9.373-9.373-24.569-9.373-33.941 0-9.373 9.372-9.373 24.568 0 33.941z" fill="#67ccd1"/></g></g><g><g><g><path d="m192.334 220.865-27.554-27.554c-23.365-22.585-57.564 11.592-34.968 34.969-.001-.001 27.554 27.554 27.554 27.554 23.364 22.584 57.563-11.593 34.968-34.969z" fill="#fde0be"/></g></g><g><g><path d="m227.346 185.852-46.279-46.279c-23.357-22.581-57.568 11.587-34.968 34.969-.001-.001 46.278 46.278 46.278 46.278 23.358 22.581 57.569-11.587 34.969-34.968z" fill="#fde0be"/></g></g><g><g><path d="m262.359 150.839-58.38-58.38c-23.353-22.579-57.571 11.584-34.968 34.969-.001-.001 58.379 58.379 58.379 58.379 23.353 22.579 57.572-11.583 34.969-34.968z" fill="#fde0be"/></g></g><g><g><path d="m297.372 115.827-58.38-58.38c-23.353-22.579-57.571 11.584-34.968 34.969-.001-.001 58.379 58.379 58.379 58.379 23.353 22.579 57.571-11.584 34.969-34.968z" fill="#fde0be"/></g></g></g></g><path d="m507.036 373.506-33.176-32.665c7.307-12.96 5.458-29.725-5.564-40.748-11.153-11.152-28.19-12.92-41.211-5.306l-24.492-24.115 28.085-28.085c6.588-6.587 10.216-15.346 10.216-24.662s-3.628-18.074-10.215-24.662c-4.415-4.415-9.731-7.387-15.36-8.935 1.966-4.41 3.009-9.22 3.009-14.193 0-9.316-3.628-18.074-10.215-24.661-4.064-4.064-8.955-6.997-14.292-8.651 7.185-13.226 5.2-30.151-5.973-41.323-6.857-6.856-15.894-10.234-24.911-10.147.001-.104.008-.206.008-.31 0-9.316-3.628-18.075-10.215-24.662-6.588-6.587-15.346-10.215-24.662-10.215-3.66 0-7.232.568-10.622 1.648l-32.702-32.694c-3.905-3.904-10.237-3.904-14.141 0l-17.485 17.484c-3.731 3.731-6.428 8.109-8.103 12.774-13.605-12.528-34.865-12.201-48.063.996-6.559 6.559-10.171 15.28-10.171 24.556 0 .104.007.206.008.31-8.99-.075-18.005 3.303-24.849 10.148-6.559 6.559-10.171 15.279-10.171 24.555 0 4.754.955 9.36 2.763 13.606-5.683 1.525-11.053 4.502-15.504 8.953-12.39 12.39-13.434 31.886-3.148 45.484-4.889 1.697-9.372 4.486-13.14 8.253-6.559 6.559-10.171 15.28-10.171 24.555 0 9.276 3.612 17.997 10.171 24.556l1.587 1.587-8.95 22.437-33.643 34.16c-12.984-7.423-29.852-5.606-40.924 5.466-11.2 11.201-12.936 28.336-5.21 41.378l-32.725 33.227c-3.854 3.914-3.83 10.204.054 14.088l103.197 103.198c1.876 1.875 4.419 2.929 7.071 2.929h.039c2.666-.011 5.217-1.085 7.087-2.984l32.796-33.314c5.108 2.828 10.791 4.252 16.478 4.252 8.707 0 17.414-3.314 24.042-9.942 11.089-11.09 12.895-27.994 5.431-40.986l27.909-28.35c17.046 4.639 34.947 4.007 51.382-1.352l31.524 31.061c-7.288 12.956-5.434 29.705 5.58 40.719 6.628 6.628 15.335 9.942 24.042 9.942 5.925 0 11.848-1.539 17.118-4.608l33.18 32.693c1.947 1.919 4.483 2.877 7.018 2.877 2.56 0 5.12-.977 7.072-2.929l103.196-103.196c1.885-1.885 2.939-4.444 2.929-7.11-.011-2.666-1.085-5.217-2.984-7.087zm-189.488-298.983c2.81-2.81 6.545-4.357 10.519-4.357s7.71 1.548 10.52 4.358c5.801 5.8 5.801 15.238 0 21.039l-26.02 26.02c-1.673-4.685-4.378-9.082-8.123-12.827l-10.564-10.564zm-50.288-23.776 10.414-10.414 22.892 22.887-20.829 20.829-12.479-12.479c-5.741-5.74-5.74-15.081.002-20.823zm-56.165 13.77c2.871-2.871 6.642-4.307 10.413-4.307s7.542 1.436 10.413 4.307l58.38 58.38c2.782 2.781 4.313 6.479 4.313 10.413s-1.532 7.632-4.314 10.414c-2.781 2.781-6.479 4.313-10.413 4.313s-7.632-1.532-10.413-4.313l-58.38-58.38c-2.781-2.781-4.313-6.479-4.313-10.413s1.532-7.632 4.314-10.414zm-35.014 35.013c2.872-2.871 6.642-4.306 10.414-4.306 3.771 0 7.542 1.436 10.413 4.306l58.38 58.381c5.742 5.742 5.742 15.084 0 20.826-5.741 5.742-15.084 5.742-20.826 0l-58.38-58.38c-5.742-5.742-5.742-15.085-.001-20.827zm-22.911 47.114c2.871-2.871 6.642-4.307 10.413-4.307s7.542 1.436 10.413 4.307l46.279 46.279c5.742 5.742 5.742 15.084 0 20.826-5.741 5.742-15.084 5.743-20.826 0l-46.279-46.279c-5.742-5.742-5.742-15.084 0-20.826zm-16.288 53.738c2.781-2.782 6.479-4.313 10.413-4.313s7.632 1.532 10.413 4.313l27.554 27.554c2.782 2.781 4.313 6.479 4.313 10.413 0 3.933-1.532 7.631-4.313 10.413s-6.479 4.313-10.413 4.313-7.632-1.532-10.413-4.313l-27.554-27.554c-2.782-2.781-4.313-6.479-4.313-10.413s1.531-7.632 4.313-10.413zm-23.741 269.24-89.053-89.053 24.911-25.294 89.048 89.047zm66.355-31.934c-2.644 2.645-6.16 4.101-9.899 4.101s-7.255-1.456-9.899-4.101l-104.747-104.746c-2.645-2.644-4.101-6.16-4.101-9.899s1.456-7.255 4.101-9.899c5.458-5.459 14.341-5.459 19.799 0l104.746 104.746c2.645 2.644 4.101 6.16 4.101 9.899 0 3.74-1.456 7.255-4.101 9.899zm47.933-75.963c-3.659-1.292-7.732-.35-10.453 2.415l-31.248 31.741-89.038-89.038 34.326-34.854c.935-.949 1.67-2.075 2.163-3.312l6.514-16.33 10.575 10.575c6.559 6.559 15.28 10.171 24.556 10.171 9.275 0 17.996-3.612 24.555-10.171s10.163-15.59 10.163-24.865c8.893 0 18.079-3.378 24.849-10.148 6.848-6.849 10.227-15.87 10.147-24.865 8.893 0 18.095-3.378 24.865-10.147 6.848-6.849 10.227-15.87 10.147-24.865 8.893 0 18.096-3.378 24.866-10.147l.062.062 48.224-48.224c5.799-5.8 15.21-5.829 20.977-.062 5.801 5.8 5.801 15.238 0 21.039l-50.499 50.498c-3.905 3.905-3.906 10.237 0 14.142 1.953 1.953 4.512 2.929 7.071 2.929s5.119-.977 7.071-2.929l36.766-36.766c2.637-2.134 5.895-3.297 9.335-3.297 3.974 0 7.709 1.547 10.52 4.358 2.81 2.81 4.357 6.545 4.357 10.519s-1.548 7.71-4.357 10.52l-35.643 35.643c-3.905 3.905-3.906 10.237 0 14.142 1.953 1.953 4.512 2.929 7.071 2.929s5.119-.977 7.071-2.929l23.101-23.1c5.807-5.731 15.19-5.711 20.967.065 5.8 5.801 5.8 15.239 0 21.04l-116.879 116.879c-18.795 18.796-47.138 25.225-72.202 16.382zm70.313 10.437c5.763-3.562 11.162-7.801 16.056-12.696l74.651-74.651 23.703 23.337-89.023 89.023zm51.664 66.619c-2.644 2.645-6.16 4.101-9.899 4.101s-7.255-1.456-9.899-4.101c-2.645-2.644-4.101-6.16-4.101-9.899s1.456-7.255 4.101-9.899l104.747-104.747c2.644-2.645 6.16-4.101 9.899-4.101 3.74 0 7.255 1.456 9.899 4.101 2.645 2.644 4.101 6.16 4.101 9.899s-1.456 7.255-4.101 9.899zm47.365 30.957-25.203-24.834 89.041-89.041 25.213 24.824z" fill="#052a75"/></g><g/><g/><g/><g/><g/><g/><g/><g/><g/><g/><g/><g/><g/><g/><g/></svg>